<svg width="200" height="160" viewBox="0 0 200 160" fill="none" xmlns="http://www.w3.org/2000/svg">
<path opacity="0.5" d="M111.094 21.9272C127.91 33.9002 134.422 57.3281 124.089 77.5928C118.451 88.6773 107.795 96.3835 102.439 107.681C96.4138 120.415 91.3406 134.811 79.9525 143.892C67.8546 153.54 50.5708 155.779 36.282 150.04C18.898 143.068 16.0144 124.091 9.85683 107.482C-15.2888 39.4732 10.7151 -28.2353 91.2749 14.3046C98.0063 17.8468 105.541 17.9665 111.094 21.9272Z" fill="#A6D7F9"/>
<path d="M191.121 82.6848H25.3918V90.9685H191.121V82.6848Z" fill="#00AAF0"/>
<path d="M182.242 129.627H34.2701V137.911H182.242V129.627Z" fill="#00C3FF"/>
<path d="M182.242 140.672H34.2701V146.194H182.242V140.672Z" fill="#00AAF0"/>
<path d="M173.364 157.238H43.1487L37.2295 146.193H179.284L173.364 157.238Z" fill="#00C3FF"/>
<path d="M191.121 90.9672H25.3918V102.011H191.121V90.9672Z" fill="#FF6991"/>
<path d="M185.203 104.773H31.3107V121.341H185.203V104.773Z" fill="#FF6991"/>
<path d="M188.163 96.491H28.3505V104.775H188.163V96.491Z" fill="#FF507D"/>
<path d="M188.163 102.011H28.3505V110.295H188.163V102.011Z" fill="#FF507D"/>
<path d="M185.203 121.342H31.3107V129.625H185.203V121.342Z" fill="#FF507D"/>
<path d="M155.609 74.4007H34.2701C31.001 74.4007 28.3512 71.928 28.3512 68.8782C28.3512 65.828 31.0014 63.3557 34.2701 63.3557H176.324C182.862 63.3557 188.162 68.3007 188.162 74.4007" fill="#00C3FF"/>
<path d="M176.324 52.3104H164.486C171.024 52.3104 176.324 47.3653 176.324 41.2654C176.324 35.1654 171.024 30.2204 164.486 30.2204H46.1082C42.8395 30.2204 40.1893 32.6927 40.1893 35.7429C40.1893 38.7927 42.8395 41.2654 46.1082 41.2654C39.5704 41.2654 34.2704 46.2104 34.2704 52.3104C34.2704 58.4103 39.5704 63.3554 46.1082 63.3554H176.324C179.593 63.3554 182.243 60.8827 182.243 57.8329C182.243 54.7827 179.593 52.3104 176.324 52.3104Z" fill="#FFC431"/>
<path d="M164.486 41.2654H49.0676C47.4331 41.2654 46.1082 40.0292 46.1082 38.5041C46.1082 36.9791 47.4331 35.7429 49.0676 35.7429H164.487C166.121 35.7429 167.446 36.9791 167.446 38.5041C167.446 40.0289 166.121 41.2654 164.486 41.2654Z" fill="#FFA100"/>
<path d="M161.527 52.3104H49.0676C47.4331 52.3104 46.1082 51.0742 46.1082 49.5491C46.1082 48.024 47.4331 46.7879 49.0676 46.7879H161.527C163.161 46.7879 164.486 48.024 164.486 49.5491C164.486 51.0742 163.161 52.3104 161.527 52.3104Z" fill="#FFA100"/>
<path d="M173.364 57.8329H49.0676C44.1644 57.8329 40.1893 54.124 40.1893 49.5492C40.1893 44.9743 44.1644 41.2654 49.0676 41.2654H46.1082C39.5704 41.2654 34.2704 46.2104 34.2704 52.3104C34.2704 58.4104 39.5704 63.3554 46.1082 63.3554H173.365C174.999 63.3554 176.324 62.1189 176.324 60.5941C176.324 59.0691 174.999 57.8329 173.364 57.8329Z" fill="#FFA100"/>
<path d="M179.284 74.4007H37.2295C35.595 74.4007 34.2701 73.1645 34.2701 71.6394C34.2701 70.1144 35.595 68.8782 37.2295 68.8782H173.364C176.634 68.8779 179.284 71.3505 179.284 74.4007Z" fill="#00AAF0"/>
<path d="M192.006 82.6844C191.861 82.7082 191.716 82.7373 191.572 82.7169C189.951 82.4848 188.445 83.5177 188.197 85.025L185.623 100.633H157.196L158.556 85.6801C158.695 84.1593 157.487 82.8219 155.86 82.6951C154.203 82.5386 152.796 83.6902 152.66 85.2109L151.258 100.633H111.216V85.4457C111.216 83.9193 109.892 82.6844 108.257 82.6844C106.621 82.6844 105.297 83.9196 105.297 85.4457V100.633H65.256L63.8534 85.2109C63.7175 83.6929 62.3217 82.5577 60.6542 82.6951C59.0272 82.8219 57.8191 84.1593 57.9578 85.6801L59.3178 100.633H30.89L28.3165 85.025C28.0678 83.5204 26.5881 82.4741 24.941 82.7169C24.8439 82.7309 24.7446 82.6948 24.6461 82.6844H21.9379L32.3744 145.954C33.7154 154.092 41.0968 160 49.926 160H166.587C175.417 160 182.798 154.092 184.139 145.954L194.555 82.6844H192.006ZM31.8006 106.155H59.8195L60.9498 118.581H33.8494L31.8006 106.155ZM34.76 124.103H61.4523L62.5826 136.529H36.8089L34.76 124.103ZM49.926 154.477C44.039 154.477 39.12 150.54 38.2241 145.112L37.7195 142.052H63.085L63.423 145.767C63.7333 149.174 64.6898 152.129 66.0728 154.477H49.926ZM105.297 154.477H74.4397C72.4138 154.477 69.8127 150.707 69.3185 145.298L69.0232 142.051H105.297V154.477ZM105.297 136.529H68.5208L67.3908 124.103H105.297V136.529V136.529ZM105.297 118.581H66.8884L65.7581 106.155H105.297V118.581ZM147.195 145.298C146.701 150.707 144.1 154.478 142.074 154.478H111.216V142.052H147.49L147.195 145.298ZM147.993 136.529H111.216V124.103H149.123L147.993 136.529ZM111.216 118.581V106.155H150.755L149.625 118.581H111.216ZM178.289 145.112C177.393 150.54 172.474 154.477 166.587 154.477H150.441C151.824 152.129 152.78 149.174 153.091 145.767L153.429 142.052H178.794L178.289 145.112ZM179.705 136.529H153.931L155.061 124.103H181.754L179.705 136.529ZM182.664 118.581H155.564L156.694 106.155H184.713L182.664 118.581Z" fill="#E1B48C"/>
<path d="M194.081 74.4007H22.4324C19.1637 74.4007 16.5136 76.873 16.5136 79.9232C16.5136 82.973 19.1637 85.4456 22.4324 85.4456H194.081C197.35 85.4456 200 82.973 200 79.9232C200 76.873 197.35 74.4007 194.081 74.4007Z" fill="#EBC9A0"/>
<path d="M75.7026 79.9232C75.7026 76.873 78.3527 74.4007 81.6214 74.4007H22.4324C19.1637 74.4007 16.5136 76.873 16.5136 79.9232C16.5136 82.973 19.1637 85.4456 22.4324 85.4456H81.6214C78.3527 85.4456 75.7026 82.973 75.7026 79.9232Z" fill="#E1B48C"/>
</svg>
