<svg width="201" height="160" viewBox="0 0 201 160" fill="none" xmlns="http://www.w3.org/2000/svg">
<path opacity="0.5" d="M114.359 22.6869C131.522 35.0866 138.175 59.3375 127.64 80.3068C121.891 91.7768 111.022 99.748 105.561 111.439C99.4185 124.615 94.2477 139.513 82.6314 148.907C70.2912 158.887 52.6567 161.197 38.075 155.25C20.3347 148.026 17.3851 128.384 11.0958 111.191C-14.5878 40.79 11.9188 -29.2769 94.1337 14.7885C101.003 18.4577 108.692 18.5851 114.359 22.6869Z" fill="#A6D7F9"/>
<path d="M133.995 131.007L136.896 119.195H145.598L154.3 125.101V131.007H133.995Z" fill="#E0EDFF"/>
<path d="M113.69 15.0336V37.5839H128.284V31.402C129.089 31.7587 129.964 31.9443 130.849 31.9463H130.849C131.662 31.9463 132.467 31.7916 133.218 31.4911C133.97 31.1906 134.652 30.7502 135.227 30.1949C135.802 29.6397 136.258 28.9805 136.569 28.255C136.88 27.5295 137.041 26.752 137.041 25.9667V15.0336H113.69Z" fill="#FFCEB6"/>
<path d="M123.843 0H123.843C125.576 -9.69489e-07 127.292 0.343718 128.893 1.01153C130.495 1.67935 131.949 2.65818 133.175 3.89214C134.401 5.1261 135.373 6.59103 136.036 8.20328C136.699 9.81553 137.041 11.5435 137.041 13.2886V14.7651H122.376V17.7181C122.376 19.2845 121.758 20.7867 120.658 21.8943C119.558 23.0019 118.066 23.6242 116.51 23.6242C115.74 23.6242 114.977 23.4714 114.266 23.1746C113.554 22.8778 112.907 22.4427 112.363 21.8943C111.818 21.3459 111.386 20.6948 111.091 19.9782C110.796 19.2617 110.645 18.4936 110.645 17.718L110.645 13.2886C110.645 9.76421 112.035 6.38421 114.51 3.89213C116.985 1.40004 120.342 2.93691e-06 123.843 0V0Z" fill="#FFB401"/>
<path d="M154.299 85.9321C154.3 86.8416 154.178 87.7472 153.935 88.6248L145.467 119.195H136.634V87.302H107.193C105.646 87.3024 104.115 87.0027 102.686 86.4201C101.257 85.8374 99.9582 84.9832 98.8646 83.9062C97.7709 82.8292 96.9035 81.5505 96.3118 80.1433C95.7201 78.7361 95.4158 77.2278 95.4162 75.7047C95.4208 69.9638 96.5751 64.2802 98.8131 58.9792L106.965 39.7095C108.064 37.1108 110.044 34.9674 112.567 33.6441C115.09 32.3207 118.001 31.8992 120.804 32.4511C123.608 33.0031 126.13 34.4944 127.943 36.6715C129.755 38.8485 130.746 41.5767 130.746 44.392V61.2081L139.579 62.2953V75.7047H143.914C145.278 75.7038 146.629 75.9678 147.889 76.4814C149.15 76.9951 150.295 77.7484 151.26 78.6983C152.224 79.6481 152.989 80.7759 153.511 82.0172C154.032 83.2584 154.3 84.5888 154.299 85.9321V85.9321Z" fill="#FFC431"/>
<path d="M159.598 68.7248L149.564 54.0216H148.208V48.3221H151.125C151.605 48.3221 152.078 48.438 152.502 48.6593C152.925 48.8807 153.286 49.2008 153.552 49.5912L164.452 65.5634L159.598 68.7248Z" fill="#62798C"/>
<path d="M78.1574 49.396V46.443C78.1574 44.0934 77.2268 41.84 75.5704 40.1787C73.914 38.5173 71.6674 37.5839 69.3249 37.5839H48.7157V49.396H78.1574Z" fill="#FFB401"/>
<path d="M54.8071 49.396V43.4899C54.8071 41.9236 54.1921 40.4213 53.0973 39.3137C52.0026 38.2061 50.5178 37.5839 48.9695 37.5839H40.2132C37.8909 37.5839 35.6637 38.5173 34.0215 40.1787C32.3794 41.84 31.4568 44.0934 31.4568 46.443V49.396H54.8071Z" fill="#FFA100"/>
<path d="M84.2487 49.396L75.4323 90.2013H37.2276L28.4112 49.396H84.2487Z" fill="#C78640"/>
<path d="M57.8528 66.5772H69.2233L72.066 49.396H57.8528V66.5772Z" fill="#FFCC4D"/>
<path d="M45.67 46.1745V78.3893H57.8528L63.9442 46.1745H45.67Z" fill="#FFC431"/>
<path d="M51.7614 110.604L45.67 104.698V98.7919H57.8528L51.7614 110.604Z" fill="#EF5E3B"/>
<path d="M180.695 156.779C190.227 156.779 197.954 148.846 197.954 139.06C197.954 129.275 190.227 121.342 180.695 121.342C171.164 121.342 163.437 129.275 163.437 139.06C163.437 148.846 171.164 156.779 180.695 156.779Z" fill="#BED3F7"/>
<path d="M180.695 160C176.68 160 172.754 158.803 169.415 156.562C166.076 154.32 163.473 151.133 161.936 147.405C160.4 143.677 159.998 139.575 160.781 135.617C161.564 131.659 163.498 128.024 166.338 125.17C169.178 122.317 172.796 120.374 176.734 119.587C180.673 118.799 184.755 119.203 188.466 120.748C192.176 122.292 195.347 124.907 197.578 128.262C199.809 131.617 201 135.562 201 139.597C200.994 145.007 198.853 150.193 195.046 154.017C191.24 157.842 186.079 159.994 180.695 160V160ZM180.695 125.024C177.827 125.024 175.023 125.879 172.638 127.48C170.253 129.081 168.394 131.357 167.296 134.02C166.198 136.683 165.911 139.614 166.471 142.44C167.03 145.267 168.412 147.864 170.44 149.902C172.468 151.94 175.053 153.328 177.866 153.891C180.679 154.453 183.595 154.164 186.246 153.061C188.896 151.958 191.161 150.09 192.754 147.694C194.348 145.297 195.199 142.48 195.199 139.597C195.194 135.734 193.665 132.029 190.946 129.297C188.227 126.565 184.541 125.028 180.695 125.024V125.024Z" fill="#62798C"/>
<path d="M160.391 127.785L176.166 143.187C176.744 143.751 177.429 144.199 178.184 144.504C178.939 144.809 179.748 144.966 180.565 144.966C181.382 144.966 182.191 144.809 182.946 144.504C183.701 144.199 184.387 143.751 184.965 143.187C185.542 142.623 186.001 141.954 186.313 141.217C186.626 140.48 186.787 139.69 186.787 138.892C186.787 138.094 186.626 137.304 186.313 136.567C186.001 135.83 185.542 135.161 184.965 134.597L169.19 119.195L160.391 127.785Z" fill="#E0EDFF"/>
<path d="M165.467 107.383H183.187C187.104 107.383 190.86 108.853 193.629 111.471C196.398 114.089 197.954 117.64 197.954 121.342H165.467V107.383Z" fill="#639AFF"/>
<path d="M95.4162 148.188H141.764C146.379 148.188 150.892 146.852 154.744 144.345C158.597 141.839 161.619 138.272 163.437 134.087L174.997 107.472H186.787V98.7472C179.201 96.8758 172.594 92.2816 168.256 85.8617L163.207 78.3893H154.365L160.26 107.472L151.418 130.738H95.4162V148.188Z" fill="#548AFF"/>
<path d="M54.8071 156.779C64.3389 156.779 72.066 148.846 72.066 139.06C72.066 129.275 64.3389 121.342 54.8071 121.342C45.2753 121.342 37.5482 129.275 37.5482 139.06C37.5482 148.846 45.2753 156.779 54.8071 156.779Z" fill="#BED3F7"/>
<path d="M54.8071 160C50.7912 160 46.8656 158.803 43.5265 156.562C40.1874 154.32 37.5849 151.133 36.0481 147.405C34.5113 143.677 34.1092 139.575 34.8927 135.617C35.6761 131.659 37.61 128.024 40.4496 125.17C43.2893 122.317 46.9072 120.374 50.8459 119.587C54.7846 118.799 58.8672 119.203 62.5773 120.748C66.2875 122.292 69.4586 124.907 71.6897 128.262C73.9208 131.617 75.1117 135.562 75.1117 139.597C75.1056 145.007 72.9644 150.193 69.1579 154.017C65.3513 157.842 60.1903 159.994 54.8071 160V160ZM54.8071 125.024C51.9386 125.024 49.1346 125.879 46.7495 127.48C44.3645 129.081 42.5056 131.357 41.4078 134.02C40.3101 136.683 40.0229 139.614 40.5825 142.44C41.1421 145.267 42.5234 147.864 44.5518 149.902C46.5801 151.94 49.1643 153.328 51.9777 153.891C54.791 154.453 57.7071 154.164 60.3573 153.061C63.0074 151.958 65.2725 150.09 66.8661 147.694C68.4598 145.297 69.3104 142.48 69.3104 139.597C69.306 135.734 67.7766 132.029 65.0577 129.297C62.3387 126.565 58.6523 125.028 54.8071 125.024Z" fill="#62798C"/>
<path d="M57.6091 98.7919H124.858V107.383C124.858 114.218 122.085 120.773 117.15 125.606C112.215 130.439 105.522 133.154 98.5431 133.154H78.0761L51.7614 110.246L57.6091 98.7919Z" fill="#639AFF"/>
<path d="M124.858 98.7919V95.8389C124.858 93.4893 123.941 91.236 122.309 89.5746C120.677 87.9132 118.464 86.9799 116.156 86.9799H84.2487V98.7919H124.858Z" fill="#C78640"/>
<path d="M95.4162 148.188H71.9532C71.1753 148.188 70.4293 147.871 69.8793 147.307C69.3293 146.743 69.0203 145.979 69.0203 145.181V133.154H95.4162V148.188Z" fill="#D1E4FF"/>
<path d="M69.0203 144.966H54.517C52.9784 144.966 51.5028 144.344 50.4149 143.237C49.3269 142.129 48.7157 140.627 48.7157 139.06C48.7157 137.494 49.3269 135.992 50.4149 134.884C51.5028 133.777 52.9784 133.154 54.517 133.154H69.0203V144.966Z" fill="#E0EDFF"/>
<path d="M154.299 78.3893V63.3557H180.695L174.83 78.3893H154.299Z" fill="#639AFF"/>
<path d="M125.884 44.7842C125.161 43.3527 123.405 42.7725 121.961 43.4882C120.516 44.204 119.931 45.9447 120.653 47.3762L126.81 59.58C127.532 61.0115 129.288 61.5918 130.732 60.876C132.177 60.1603 132.762 58.4195 132.04 56.988L125.884 44.7842Z" fill="#FFB401"/>
<path d="M139.071 75.1678H147.829C149.545 75.1678 151.191 74.5442 152.404 73.4341C153.618 72.324 154.299 70.8185 154.299 69.2486C154.299 67.8059 153.723 66.4128 152.68 65.3313C151.636 64.2497 150.196 63.5541 148.631 63.3751L139.071 62.2819V75.1678Z" fill="#FFCEB6"/>
<path d="M154.299 85.8596C154.3 86.7711 154.178 87.6786 153.935 88.5582L145.467 119.195H136.634V87.2325H107.193C105.646 87.2329 104.115 86.9326 102.686 86.3487C101.257 85.7647 99.9582 84.9086 98.8646 83.8293C97.7709 82.7499 96.9035 81.4685 96.3118 80.0582C95.7201 78.6479 95.4158 77.1364 95.4162 75.6099C95.4158 73.6662 95.5486 71.7247 95.8137 69.7986H117.203L118.377 71.2478C119.48 72.6089 120.88 73.7077 122.472 74.4628C124.064 75.2179 125.808 75.6099 127.574 75.6099H143.914C145.278 75.6091 146.629 75.8736 147.889 76.3883C149.15 76.9031 150.295 77.6581 151.26 78.61C152.224 79.562 152.989 80.6922 153.511 81.9362C154.032 83.1801 154.3 84.5133 154.299 85.8596V85.8596Z" fill="#8098AB"/>
<path d="M142.117 46.1745H148.208C149.824 46.1745 151.373 46.7779 152.515 47.8519C153.658 48.926 154.3 50.3827 154.3 51.9016V54.7651H148.208C146.593 54.7651 145.043 54.1617 143.901 53.0877C142.759 52.0136 142.117 50.5569 142.117 49.038V46.1745Z" fill="#8098AB"/>
<path d="M28.4112 90.2014H84.2487V98.792H28.4112V90.2014Z" fill="#D1E4FF"/>
<path d="M40.5939 46.1745H51.7614V63.3557H40.5939V46.1745Z" fill="#FFD873"/>
<path d="M163.437 78.3893L169.189 63.3557H180.695L174.942 78.3893H163.437Z" fill="#E0EDFF"/>
<path d="M139.071 75.4539C139.071 76.2324 138.772 76.979 138.24 77.5295C137.708 78.08 136.986 78.3892 136.233 78.3892H127.5C125.372 78.3944 123.269 77.9017 121.351 76.9478C119.432 75.994 117.747 74.6037 116.421 72.8811L110.251 64.9032C110.018 64.6022 109.845 64.2567 109.742 63.8865C109.638 63.5163 109.606 63.1285 109.647 62.7454C109.688 62.3623 109.802 61.9913 109.981 61.6536C110.161 61.316 110.403 61.0183 110.694 60.7775L110.695 60.7774C111.282 60.2911 112.033 60.0662 112.781 60.1522C113.529 60.2382 114.213 60.628 114.683 61.2359L120.853 69.2138C121.651 70.245 122.662 71.0774 123.813 71.6495C124.963 72.2216 126.224 72.5186 127.5 72.5186H136.233C136.986 72.5186 137.708 72.8279 138.24 73.3784C138.772 73.9288 139.071 74.6754 139.071 75.4539V75.4539Z" fill="#FFB401"/>
</svg>
