<svg width="200" height="160" viewBox="0 0 200 160" fill="none" xmlns="http://www.w3.org/2000/svg">
<path opacity="0.5" d="M111.642 21.1429C128.537 32.6754 135.073 55.2538 124.68 74.791C119.009 85.4775 108.297 92.9103 102.91 103.803C96.8493 116.079 91.745 129.957 80.2962 138.715C68.1338 148.02 50.7624 150.187 36.4043 144.661C18.9359 137.949 16.0453 119.659 9.8634 103.654C-15.3814 38.114 10.7796 -27.1601 91.7265 13.8051C98.4902 17.2161 106.063 17.328 111.642 21.1429Z" fill="#A6D7F9"/>
<path d="M101.514 38.0285V35.6237C101.514 33.0726 100.389 30.6259 98.387 28.822C96.3846 27.0181 93.6687 26.0046 90.8369 26.0046H58.8045V16.3855H93.5062C98.462 16.3855 103.215 18.1591 106.719 21.3159C110.223 24.4728 112.192 28.7544 112.192 33.2189V38.0285H101.514Z" fill="#FFA100"/>
<path d="M199.999 124.49H133.635L127.864 111.807H119.208C116.912 111.807 114.711 112.609 113.087 114.036C111.464 115.463 110.552 117.398 110.552 119.417V126.797C110.552 131.952 111.917 137.036 114.539 141.646V141.646C117.676 147.161 122.498 151.799 128.465 155.041C134.432 158.283 141.308 160 148.322 160H199.999V124.49Z" fill="#FFCEB6"/>
<path d="M118.592 37.124H81.0821C76.4906 37.124 72.0871 35.532 68.8404 32.6981C65.5937 29.8643 63.7697 26.0208 63.7697 22.0132V14.4578H34.9158C33.3853 14.4578 31.9174 14.9885 30.8352 15.9331C29.753 16.8777 29.145 18.1589 29.145 19.4948V87.4932C29.145 88.8291 29.753 90.1102 30.8352 91.0548C31.9174 91.9995 33.3853 92.5301 34.9158 92.5301H69.5405C78.9052 92.5301 88.0173 89.879 95.5091 84.9747L107.051 92.5301L118.592 84.9747V37.124H118.592Z" fill="#FFC431"/>
<path d="M118.592 44.3373H136.683V64.5783H118.592V44.3373Z" fill="#FFA100"/>
<path d="M161.808 97.3494L158.687 117.398L155.954 134.94H124.447L121.713 117.398L118.592 97.3494H161.808Z" fill="#BBEDF2"/>
<path d="M158.793 117.59L156.044 134.94H124.356L121.607 117.59H158.793Z" fill="#548AFF"/>
<path d="M89.4465 77.1084V67.1486L88.6002 66.4193C87.9524 65.8611 87.4386 65.1984 87.088 64.4691C86.7375 63.7398 86.557 62.9581 86.557 62.1687C86.557 60.5744 87.292 59.0454 88.6002 57.9181L89.4465 57.1888V47.2289H77.8887V52.2088H66.3309V72.1285H77.8887V77.1084H89.4465Z" fill="#FFE28F"/>
<path d="M43.2153 52.0482H66.3309V72.2892H43.2153V52.0482Z" fill="#FFD873"/>
<path d="M43.2153 59.759H57.2857V64.5783H43.2153V59.759Z" fill="#FFCC4D"/>
<path d="M47.7317 50.6462C50.7894 50.6462 58.8046 46.0898 58.8046 46.0898C58.8046 46.0898 50.7894 41.5334 47.7317 41.5334C46.2633 41.5334 44.8551 42.0135 43.8168 42.868C42.7785 43.7224 42.1952 44.8814 42.1952 46.0898C42.1952 47.2983 42.7785 48.4572 43.8168 49.3117C44.8551 50.1662 46.2633 50.6462 47.7317 50.6462Z" fill="#FFE28F"/>
<path d="M148.743 117.59V64.1542C148.743 61.4548 147.472 58.8659 145.211 56.9571C142.949 55.0483 139.881 53.9759 136.683 53.9759L136.682 81.9663C132.821 85.2248 130.652 89.6442 130.652 94.2524V117.59H148.743Z" fill="#7DAFFF"/>
<path d="M167.838 124.634L155.103 109.079C154.574 108.432 153.875 107.905 153.065 107.541C152.255 107.178 151.357 106.988 150.446 106.988C149.694 106.988 148.95 107.117 148.256 107.368C147.561 107.619 146.931 107.987 146.399 108.45C145.868 108.914 145.446 109.464 145.159 110.07C144.871 110.676 144.723 111.325 144.723 111.981V139.759H167.838V124.634Z" fill="#FFCEB6"/>
</svg>
