<svg width="200" height="160" viewBox="0 0 200 160" fill="none" xmlns="http://www.w3.org/2000/svg">
<path opacity="0.5" d="M83.6445 34.1681C96.3085 42.4596 101.219 58.6746 93.4466 72.6946C89.2054 80.3633 81.1855 85.6925 77.157 93.5091C72.6251 102.319 68.8105 112.28 60.2398 118.56C51.135 125.232 38.1234 126.776 27.364 122.799C14.2739 117.968 12.0967 104.835 7.45531 93.3389C-11.4985 46.2662 8.05629 -0.580681 68.7208 28.8862C73.7898 31.3398 79.4625 31.4253 83.6445 34.1681Z" fill="#A6D7F9"/>
<path d="M142.013 68.3973L132.168 40.8313C130.63 36.5247 126.758 33.1708 121.818 31.8762C119.637 31.3045 114.782 30.0249 111.151 29.0717C109.035 28.5165 106.773 28.6153 104.73 29.3483L101.258 30.5933C95.7235 32.6774 88.4945 33.9453 80.5648 33.9453C72.6376 33.9453 65.4103 32.6782 59.8767 30.595L58.154 29.7351C55.8826 28.6014 53.1831 28.3227 50.673 28.9643C46.7387 29.9698 41.609 31.2739 39.3112 31.8759C34.3715 33.1703 30.4999 36.5242 28.9617 40.831L19.1164 68.397C18.7507 69.4212 19.2571 70.5293 20.329 71.0503L41.7669 81.4712H119.362L140.8 71.0506C141.872 70.5298 142.378 69.4215 142.013 68.3973Z" fill="#00AAF0"/>
<path d="M120.755 53.6523L129.13 36.0658C127.224 34.1151 124.714 32.6351 121.818 31.8765C119.637 31.3048 114.782 30.0253 111.151 29.0721C109.036 28.5168 106.774 28.6156 104.73 29.3486L101.258 30.5936C95.7238 32.6777 88.4949 33.9456 80.5652 33.9456C72.638 33.9456 65.4106 32.6785 59.8771 30.5953L58.1543 29.7354C55.8829 28.6017 53.1835 28.323 50.6734 28.9646C46.739 29.9701 41.6094 31.2742 39.3115 31.8762C36.4167 32.6348 33.9066 34.1151 32.0002 36.0656L40.3748 53.6521C41.2943 55.5827 41.7675 57.6537 41.7675 59.7453V140.313C41.7675 141.563 42.9257 142.577 44.354 142.577H116.776C118.205 142.577 119.363 141.563 119.363 140.313V59.7455C119.362 57.654 119.836 55.5833 120.755 53.6523Z" fill="#00C3FF"/>
<path d="M101.258 30.5936C95.7231 32.6777 88.4942 33.9456 80.5645 33.9456C72.6373 33.9456 65.41 32.6785 59.8764 30.5953L57.9449 29.6312C60.3891 38.591 69.576 45.2612 80.5645 45.2612C91.4282 45.2612 100.527 38.7403 103.095 29.9345L101.258 30.5936Z" fill="#0096DC"/>
<path d="M80.5645 27.1562C79.1349 27.1562 77.978 26.1428 77.978 24.8931V19.4153C77.978 18.5169 77.43 17.7146 76.614 17.4195C72.0902 15.7832 69.5289 11.6743 70.3802 7.42767C71.1129 3.77888 74.538 0.78198 78.7107 0.140941C81.7618 -0.329674 84.8686 0.390729 87.2155 2.11557C89.5645 3.84153 90.9108 6.36893 90.9108 9.05088C90.9108 10.3007 89.7539 11.314 88.3243 11.314C86.8947 11.314 85.7378 10.3007 85.7378 9.05088C85.7378 7.71032 85.0634 6.44634 83.8887 5.58225C82.6965 4.70702 81.1759 4.3567 79.605 4.59869C77.5716 4.91142 75.8339 6.43075 75.4778 8.21101C75.0459 10.3516 76.3266 12.4167 78.5897 13.2357C81.3605 14.2379 83.1513 16.6637 83.1513 19.4153V24.8931C83.151 26.1428 81.9941 27.1562 80.5645 27.1562Z" fill="#959CB5"/>
<path d="M105.042 30.167L86.69 25.1893C82.6841 24.1019 78.4455 24.1019 74.4396 25.1893L54.6516 30.5566C55.0631 32.0238 55.5121 33.4816 56.0143 34.9252L75.9704 29.5126C78.9764 28.697 82.1538 28.697 85.1595 29.5126L103.777 34.5621C104.237 33.1068 104.66 31.6423 105.042 30.167Z" fill="#9B7869"/>
<path d="M39.1804 61.1039C37.7517 61.1039 36.5939 62.1169 36.5939 63.367V66.0041L22.4375 59.0989L20.8615 63.5124L35.2668 70.539C36.086 70.9386 36.5939 71.6949 36.5939 72.5159V78.958L41.7669 81.4726V63.3673C41.7669 62.1172 40.6091 61.1039 39.1804 61.1039Z" fill="#0096DC"/>
<path d="M121.949 61.1033C123.377 61.1033 124.535 62.1164 124.535 63.3664V66.0036L138.692 59.0983L140.268 63.5118L125.862 70.5384C125.043 70.9381 124.535 71.6944 124.535 72.5153V78.9574L119.362 81.472V63.3667C119.362 62.1167 120.52 61.1033 121.949 61.1033Z" fill="#0096DC"/>
<path d="M46.9398 92.7874V72.419C46.9398 69.9192 44.6239 67.8928 41.7668 67.8928V140.313C41.7668 141.563 42.925 142.577 44.3533 142.577H111.603C113.031 142.577 114.189 141.563 114.189 140.313C114.189 139.064 113.031 138.05 111.603 138.05H98.6702C70.1004 138.051 46.9398 117.786 46.9398 92.7874Z" fill="#00AAF0"/>
<path d="M111.156 29.0734C109.041 28.5181 106.773 28.6159 104.729 29.3485L103.095 29.9347C100.527 38.7402 91.4282 45.2614 80.5645 45.2614C69.5865 45.2614 60.4076 38.604 57.9525 29.6576C55.7225 28.603 53.1163 28.3402 50.6771 28.9637L49.9448 29.1508C52.285 42.1217 65.0822 52.0511 80.5645 52.0511C96.0732 52.0511 108.888 42.0877 111.196 29.084C111.183 29.0803 111.169 29.077 111.156 29.0734Z" fill="#00AAF0"/>
<path d="M193.925 119.285C196.414 117.442 197.81 114.93 197.799 112.313C197.789 107.388 192.926 103.222 186.397 102.545C188.026 102.101 189.347 101.723 190.381 101.443C191.697 100.967 192.896 100.328 193.925 99.552C196.414 97.7093 197.81 95.1976 197.799 92.5798C197.799 87.1307 191.886 82.7134 184.592 82.7134H118.556C117.411 82.7105 116.27 82.8267 115.167 83.0587L115.079 83.0751C114.264 83.2231 79.8816 92.9251 79.8816 92.9251L79.8376 92.9415C77.6249 93.3805 75.6105 94.2551 74.0045 95.4739C71.5154 97.3166 70.1198 99.8283 70.1304 102.446C70.1304 107.895 76.0434 112.313 83.3375 112.313C76.0479 112.321 70.1413 116.733 70.1304 122.179C70.1304 127.628 76.0434 132.045 83.3375 132.045C76.0479 132.053 70.1413 136.466 70.1304 141.912C70.1304 147.361 76.0434 151.778 83.3375 151.778H149.373C151.397 151.782 153.395 151.433 155.206 150.759H155.228L190.447 140.892C195.649 138.975 198.563 134.743 197.627 130.467C196.691 126.19 192.124 122.873 186.375 122.294L190.381 121.176C191.697 120.7 192.896 120.061 193.925 119.285V119.285Z" fill="#2980BA"/>
<path d="M162.58 102.446C162.564 106.196 159.719 109.619 155.228 111.293H155.206C153.395 111.967 151.397 112.317 149.373 112.313H83.3375C76.0434 112.313 70.1304 107.895 70.1304 102.446C70.1198 99.8283 71.5154 97.3166 74.0045 95.4739C75.6105 94.2551 77.6249 93.3805 79.8376 92.9415L79.8816 92.9251C81.0072 92.6931 82.1699 92.5769 83.3375 92.5798H149.373C156.667 92.5798 162.58 96.9971 162.58 102.446Z" fill="#F3D55B"/>
<path d="M162.58 122.179C162.564 125.929 159.719 129.351 155.228 131.026H155.206C153.395 131.7 151.397 132.049 149.373 132.045H83.3375C76.0434 132.045 70.1304 127.628 70.1304 122.179C70.1413 116.733 76.0479 112.321 83.3375 112.312H149.373C156.667 112.312 162.58 116.73 162.58 122.179Z" fill="#7ED09E"/>
<path d="M162.58 141.912C162.564 145.661 159.719 149.084 155.228 150.759H155.206C153.395 151.433 151.397 151.782 149.373 151.778H83.3375C76.0434 151.778 70.1304 147.361 70.1304 141.912C70.1413 136.466 76.0479 132.053 83.3375 132.045H149.373C152.876 132.045 156.235 133.085 158.712 134.935C161.189 136.785 162.58 139.295 162.58 141.912Z" fill="#3B97D3"/>
<path d="M197.799 92.5798C197.81 95.1976 196.414 97.7093 193.925 99.552C192.896 100.328 191.697 100.967 190.381 101.443C189.347 101.723 188.026 102.101 186.397 102.545C180.52 104.206 170.57 107.001 155.228 111.293C160.733 109.263 163.639 104.666 162.242 100.2C160.844 95.7346 155.512 92.5769 149.373 92.5798H83.3375C82.1698 92.5769 81.0072 92.6931 79.8816 92.9251C79.8816 92.9251 114.264 83.2231 115.079 83.0751L115.167 83.0587C116.27 82.8267 117.411 82.7105 118.556 82.7134H184.592C191.886 82.7134 197.799 87.1307 197.799 92.5798V92.5798Z" fill="#F0C419"/>
<path d="M197.799 112.313C197.81 114.93 196.414 117.442 193.925 119.285C192.896 120.061 191.697 120.7 190.381 121.176L186.375 122.294L155.228 131.026C160.733 128.995 163.639 124.399 162.242 119.933C160.845 115.467 155.512 112.31 149.373 112.313C151.397 112.317 153.395 111.967 155.206 111.293H155.228C170.571 107.001 180.52 104.206 186.397 102.545C192.926 103.222 197.789 107.388 197.799 112.313V112.313Z" fill="#71C285"/>
<path d="M151.574 104.091H81.1363C79.9206 104.091 78.9351 103.354 78.9351 102.446C78.9351 101.538 79.9206 100.802 81.1363 100.802H151.574C152.79 100.802 153.775 101.538 153.775 102.446C153.775 103.354 152.79 104.091 151.574 104.091Z" fill="#F0C419"/>
<path d="M151.574 123.823H81.1363C79.9206 123.823 78.9351 123.087 78.9351 122.179C78.9351 121.271 79.9206 120.535 81.1363 120.535H151.574C152.79 120.535 153.775 121.271 153.775 122.179C153.775 123.087 152.79 123.823 151.574 123.823Z" fill="#71C285"/>
<path d="M151.574 143.556H81.1363C79.9206 143.556 78.9351 142.82 78.9351 141.912C78.9351 141.003 79.9206 140.267 81.1363 140.267H151.574C152.79 140.267 153.775 141.003 153.775 141.912C153.775 142.82 152.79 143.556 151.574 143.556Z" fill="#2980BA"/>
<path d="M89.9411 74.4913C88.7254 74.4913 87.7399 73.7551 87.7399 72.8469V69.5581C87.7399 68.6499 88.7254 67.9137 89.9411 67.9137C91.1567 67.9137 92.1422 68.6499 92.1422 69.5581V72.8469C92.1422 73.7551 91.1567 74.4913 89.9411 74.4913Z" fill="#FF5364"/>
<path d="M89.9411 84.3577C88.7254 84.3577 87.7399 83.6215 87.7399 82.7133V79.4245C87.7399 78.5164 88.7254 77.7802 89.9411 77.7802C91.1567 77.7802 92.1422 78.5164 92.1422 79.4245V82.7133C92.1422 83.6215 91.1567 84.3577 89.9411 84.3577Z" fill="#FF5364"/>
<path d="M85.5387 77.7801H81.1363C79.9206 77.7801 78.9351 77.0439 78.9351 76.1357C78.9351 75.2276 79.9206 74.4913 81.1363 74.4913H85.5387C86.7544 74.4913 87.7399 75.2276 87.7399 76.1357C87.7399 77.0439 86.7544 77.7801 85.5387 77.7801Z" fill="#FF5364"/>
<path d="M98.7458 77.7801H94.3435C93.1278 77.7801 92.1423 77.0439 92.1423 76.1357C92.1423 75.2276 93.1278 74.4913 94.3435 74.4913H98.7458C99.9615 74.4913 100.947 75.2276 100.947 76.1357C100.947 77.0439 99.9615 77.7801 98.7458 77.7801Z" fill="#FF5364"/>
<path d="M197.799 160C197.215 160 196.656 159.827 196.243 159.518L192.941 157.052C192.107 156.406 192.119 155.381 192.968 154.747C193.817 154.112 195.19 154.103 196.054 154.726L199.355 157.193C199.985 157.663 200.173 158.371 199.832 158.985C199.492 159.599 198.689 160 197.799 160Z" fill="#894B9D"/>
<path d="M187.894 152.6C187.31 152.6 186.75 152.427 186.338 152.118L183.036 149.652C182.202 149.007 182.214 147.981 183.063 147.347C183.912 146.712 185.285 146.703 186.148 147.327L189.45 149.793C190.079 150.264 190.268 150.971 189.927 151.585C189.586 152.199 188.784 152.6 187.894 152.6Z" fill="#894B9D"/>
<path d="M184.592 160C183.702 160 182.9 159.599 182.559 158.985C182.218 158.371 182.407 157.663 183.036 157.193L186.338 154.726C187.201 154.103 188.574 154.112 189.423 154.747C190.272 155.381 190.284 156.406 189.45 157.052L186.148 159.518C185.736 159.827 185.176 160 184.592 160Z" fill="#894B9D"/>
<path d="M194.497 152.6C193.607 152.6 192.805 152.199 192.464 151.585C192.124 150.971 192.312 150.264 192.941 149.793L196.243 147.327C197.107 146.703 198.48 146.712 199.329 147.347C200.178 147.981 200.19 149.007 199.355 149.652L196.054 152.118C195.641 152.427 195.081 152.6 194.497 152.6Z" fill="#894B9D"/>
</svg>
