<svg width="200" height="161" viewBox="0 0 200 161" fill="none" xmlns="http://www.w3.org/2000/svg">
<path opacity="0.5" d="M121.075 22.81C139.406 35.2788 146.514 59.6631 135.264 80.7466C129.124 92.279 117.516 100.293 111.684 112.048C105.124 125.296 99.6028 140.275 87.1969 149.719C74.0177 159.753 55.1835 162.075 39.6094 156.094C20.6616 148.83 17.51 129.079 10.7917 111.792C-16.6438 41.0033 11.6616 -29.4457 99.4731 14.8669C106.81 18.5567 115.022 18.6853 121.075 22.81Z" fill="#A6D7F9"/>
<path d="M163.906 62.8236L158.317 60.3338L176.364 28.1727C177.523 26.1022 178.127 23.8207 178.13 21.5072C178.13 19.6977 177.565 17.924 176.497 16.3848C175.429 14.8456 173.902 13.6017 172.085 12.7925C170.269 11.9833 168.236 11.6407 166.213 11.8032C164.191 11.9656 162.259 12.6267 160.634 13.7123L149.386 21.2288L145.637 16.7745L156.885 9.2583C159.438 7.55226 162.474 6.51337 165.652 6.25803C168.83 6.00269 172.026 6.541 174.88 7.81263C177.734 9.08426 180.135 11.039 181.812 13.4577C183.49 15.8765 184.379 18.6637 184.379 21.5072C184.374 24.685 183.544 27.8189 181.953 30.663L163.906 62.8236Z" fill="#BED3F7"/>
<path d="M78.1531 84.1429L150.012 148.171L160.568 157.576C161.652 158.542 163.079 159.142 164.605 159.276C166.131 159.409 167.661 159.067 168.936 158.308C170.211 157.549 171.151 156.42 171.596 155.113C172.041 153.805 171.964 152.401 171.378 151.139C171.043 150.423 170.555 149.772 169.941 149.222C167.816 147.332 164.082 144.002 159.384 139.819L96.8988 84.1429H78.1531Z" fill="#BED3F7"/>
<path d="M150.012 148.171L160.568 157.576C161.652 158.542 163.079 159.142 164.605 159.276C166.131 159.409 167.661 159.067 168.936 158.308C170.211 157.549 171.151 156.42 171.596 155.113C172.041 153.805 171.964 152.401 171.378 151.139C171.043 150.423 170.555 149.772 169.941 149.222C167.816 147.332 164.082 144.002 159.384 139.819L150.012 148.171Z" fill="#AEC1E8"/>
<path d="M140.639 84.1429L68.7802 148.171L58.2241 157.576C57.1394 158.542 55.7126 159.142 54.1868 159.276C52.661 159.409 51.1304 159.067 49.8557 158.308C48.5811 157.549 47.6411 156.42 47.1959 155.113C46.7507 153.805 46.8278 152.401 47.4141 151.139C47.749 150.423 48.2372 149.772 48.8512 149.222C50.9757 147.332 54.7093 144.002 59.4074 139.819L121.893 84.1429H140.639Z" fill="#D1E4FF"/>
<path d="M18.7917 59.0886H200V70.2239H18.7917V59.0886Z" fill="#486BE0"/>
<path d="M46.9103 59.0886V95.2782L65.656 117.549L78.1531 109.197L68.7802 92.4944V84.1429L165.633 111.981V59.0886H46.9103Z" fill="#548AFF"/>
<path d="M133.525 22.485L146.887 14.5476L153.136 22.899L140.056 30.6687L133.525 22.485Z" fill="#FFB401"/>
<path d="M81.2773 47.9534V39.6019C81.2773 34.4337 83.5815 29.4772 87.6829 25.8228C91.7843 22.1683 97.347 20.1152 103.147 20.1152H137.514L146.887 36.8181L140.639 47.9534H131.266V31.2505H106.272L96.8987 39.6019V47.9534H81.2773Z" fill="#FFC431"/>
<path d="M140.639 47.9534L134.39 59.0886H68.7802L75.0288 47.9534H140.639Z" fill="#D1E4FF"/>
<path d="M71.9045 73.0077C71.9045 71.4702 70.5057 70.2239 68.7802 70.2239C67.0547 70.2239 65.6559 71.4702 65.6559 73.0077V81.3591C65.6559 82.8966 67.0547 84.1429 68.7802 84.1429C70.5057 84.1429 71.9045 82.8966 71.9045 81.3591V73.0077Z" fill="#4F7FF7"/>
<path d="M68.7802 148.171L58.2241 157.576C57.1394 158.542 55.7126 159.142 54.1868 159.276C52.661 159.409 51.1304 159.067 49.8557 158.308C48.5811 157.549 47.6411 156.42 47.1959 155.113C46.7507 153.805 46.8278 152.401 47.4141 151.139C47.749 150.423 48.2372 149.772 48.8512 149.222C50.9757 147.332 54.7093 144.002 59.4074 139.819L68.7802 148.171Z" fill="#BED3F7"/>
<path d="M106.272 47.9534L112.52 39.6019H131.266V47.9534H106.272Z" fill="#FFB401"/>
</svg>
