<svg width="221" height="198" viewBox="0 0 221 198" fill="none" xmlns="http://www.w3.org/2000/svg">
<path opacity="0.5" d="M151.836 28.7564C174.659 43.9131 183.494 73.577 169.465 99.2393C161.809 113.276 147.343 123.037 140.07 137.344C131.889 153.469 125 171.699 109.54 183.2C93.1158 195.419 69.6542 198.259 50.2598 190.994C26.664 182.171 22.7536 158.142 14.3987 137.113C-19.7203 51.003 15.5912 -34.7382 124.935 19.1089C134.071 23.5926 144.299 23.7425 151.836 28.7564Z" fill="#A6D7F9"/>
<path d="M165.154 47.8466L170.058 45.2933C170.83 44.8915 171.285 44.2606 171.285 43.5906L171.286 39.3328C171.286 38.6628 170.832 38.0317 170.06 37.6294L165.158 35.0734L162.091 41.4591L165.154 47.8466Z" fill="#2980BA"/>
<path d="M188.138 54.2396L185.075 47.8521L188.142 41.4664L193.877 43.0646C195.039 43.3879 195.801 44.1693 195.803 45.0386L195.801 50.6716C195.799 51.5409 195.037 52.3219 193.875 52.6445L188.138 54.2396Z" fill="#F0C419"/>
<path d="M188.138 54.2396L188.142 39.3375C188.142 39.3375 188.151 8.43705 152.831 3.13699C152.88 3.3124 152.905 3.49056 152.907 3.66923L149.836 27.6181L152.894 51.0365C156.247 51.0416 159.209 52.5537 160.218 54.7747C160.575 55.6975 161.769 56.3447 163.144 56.3615L185.073 56.3676C186.763 56.3646 188.133 55.4139 188.138 54.2396V54.2396ZM168.218 51.0408C166.527 51.0368 165.159 50.0853 165.154 48.911L165.159 30.8157C165.162 29.916 165.978 29.1148 167.199 28.8142C168.42 28.5136 169.781 28.7785 170.599 29.476L178.259 35.9818C178.706 36.364 178.95 36.8416 178.949 37.3339L178.945 48.9149C178.94 50.0892 177.571 51.0399 175.88 51.0429L168.218 51.0408Z" fill="#3B97D3"/>
<path d="M149.061 56.3581C148.044 56.3601 147.068 56.0802 146.349 55.5804C145.63 55.0807 145.228 54.4024 145.231 53.696L145.245 3.6676C145.243 2.58982 146.176 1.61756 147.61 1.20525C149.043 0.792935 150.693 1.022 151.789 1.78538C152.319 2.1514 152.681 2.61814 152.831 3.12685L152.831 3.1375C152.879 3.31291 152.905 3.49107 152.907 3.66974L152.893 53.6981C152.893 55.1678 151.177 56.3587 149.061 56.3581Z" fill="#BDC3C7"/>
<path d="M157.503 9.02354C157.505 8.65999 157.775 8.32253 158.218 8.12861C158.66 7.9347 159.215 7.91115 159.688 8.06616C166.985 10.5355 172.888 14.624 176.465 19.6849C176.857 20.2058 176.568 20.8491 175.818 21.1217C175.068 21.3942 174.142 21.1929 173.749 20.6719C170.48 16.023 165.072 12.2639 158.382 9.98922C157.844 9.81309 157.501 9.43665 157.503 9.02354Z" fill="white"/>
<path d="M175.888 23.3676C175.888 23.9555 176.574 24.4322 177.42 24.4325C178.266 24.4327 178.952 23.9563 178.953 23.3685C178.953 22.7806 178.267 22.3039 177.42 22.3036C176.574 22.3034 175.888 22.7798 175.888 23.3676Z" fill="white"/>
<path d="M136.781 13.1613C136.786 11.2974 134.769 9.61853 131.684 8.92043C128.6 8.22233 125.069 8.64525 122.764 9.98875C120.46 11.3323 119.845 13.3264 121.211 15.026C118.545 15.5855 116.469 16.7871 115.558 18.2986C114.647 19.8102 114.998 21.4714 116.512 22.8228C113.882 23.9729 112.344 25.7381 112.344 27.608C112.343 29.478 113.88 31.244 116.509 32.3956C114.994 33.7462 114.643 35.4072 115.553 36.9192C116.463 38.4313 118.538 39.6341 121.204 40.195C119.837 41.8939 120.451 43.8884 122.754 45.2331C125.058 46.5779 128.589 47.0028 131.674 46.3064C134.759 45.61 136.777 43.9323 136.773 42.0684L136.781 13.1613Z" fill="#ECF0F1"/>
<path d="M126.235 14.3419C126.235 14.0496 126.526 13.7887 126.961 13.6905C127.397 13.5922 127.883 13.6777 128.176 13.9041L138.02 21.5122C138.391 21.8083 138.318 22.2378 137.855 22.4768C137.393 22.7158 136.712 22.6758 136.327 22.387L126.482 14.7789C126.322 14.6558 126.235 14.5013 126.235 14.3419V14.3419Z" fill="#BDC3C7"/>
<path d="M126.228 40.6149C126.227 40.4556 126.315 40.3011 126.475 40.178L136.323 32.5754C136.709 32.2869 137.39 32.2473 137.852 32.4865C138.315 32.7258 138.388 33.1553 138.017 33.4512L128.168 41.0538C127.875 41.28 127.389 41.3653 126.953 41.2668C126.518 41.1683 126.227 40.9073 126.228 40.6149Z" fill="#BDC3C7"/>
<path d="M121.855 27.4772C121.855 27.0953 122.345 26.7859 122.949 26.7861L137.172 26.79C137.776 26.7902 138.266 27.0999 138.266 27.4817C138.266 27.8636 137.776 28.173 137.171 28.1728L122.949 28.1689C122.345 28.1687 121.855 27.859 121.855 27.4772Z" fill="#BDC3C7"/>
<path d="M121.857 20.5632C121.858 20.3142 122.07 20.0846 122.413 19.9622C122.756 19.8398 123.177 19.8435 123.515 19.9718L128.984 22.0476C129.327 22.1725 129.536 22.4046 129.532 22.6546C129.527 22.9046 129.309 23.1335 128.962 23.2532C128.615 23.373 128.192 23.365 127.857 23.2323L122.388 21.1566C122.058 21.0314 121.857 20.8061 121.857 20.5632V20.5632Z" fill="#BDC3C7"/>
<path d="M121.853 34.3911C121.853 34.1482 122.055 33.9231 122.384 33.7981L127.855 31.7254C128.372 31.5372 129.032 31.6454 129.339 31.9686C129.646 32.2918 129.487 32.7109 128.981 32.9108L123.511 34.9834C123.173 35.1116 122.752 35.115 122.409 34.9924C122.066 34.8698 121.854 34.6401 121.853 34.3911Z" fill="#BDC3C7"/>
<path d="M211.485 113.409L34.9346 113.405L34.9347 122.359L211.485 122.362L211.485 113.409Z" fill="#00AAF0"/>
<path d="M202.027 164.146L44.3934 164.144L44.3936 173.097L202.027 173.1L202.027 164.146Z" fill="#00C3FF"/>
<path d="M202.027 176.084L44.3937 176.081L44.3938 182.05L202.027 182.053L202.027 176.084Z" fill="#00AAF0"/>
<path d="M192.571 193.99L53.8525 193.987L47.5466 182.049L198.876 182.052L192.571 193.99Z" fill="#00C3FF"/>
<path d="M211.485 122.361L34.9348 122.357L34.935 134.295L211.485 134.298L211.485 122.361Z" fill="#FF6991"/>
<path d="M205.181 137.283L41.2404 137.28L41.2407 155.187L205.181 155.19L205.181 137.283Z" fill="#FF6991"/>
<path d="M208.334 128.331L38.0866 128.328L38.0868 137.281L208.334 137.285L208.334 128.331Z" fill="#FF507D"/>
<path d="M208.334 134.298L38.0869 134.295L38.087 143.248L208.334 143.251L208.334 134.298Z" fill="#FF507D"/>
<path d="M205.181 155.191L41.2408 155.188L41.241 164.141L205.181 164.144L205.181 155.191Z" fill="#FF507D"/>
<path d="M173.654 104.454L44.3923 104.452C40.9098 104.452 38.0869 101.779 38.0869 98.4825C38.0868 95.1857 40.9099 92.5135 44.3921 92.5136L195.722 92.5164C202.686 92.5166 208.332 97.8615 208.332 104.455" fill="#00C3FF"/>
<path d="M195.721 80.578L183.111 80.5778C190.075 80.5779 195.721 75.2332 195.721 68.64C195.721 62.0468 190.075 56.7019 183.11 56.7018L57.0024 56.6994C53.5202 56.6993 50.6971 59.3715 50.6971 62.6683C50.6972 65.9647 53.5205 68.6374 57.0026 68.6374C50.0379 68.6373 44.392 73.982 44.3921 80.5752C44.3923 87.1684 50.0384 92.5133 57.0031 92.5135L195.722 92.5161C199.204 92.5161 202.027 89.8436 202.027 86.5472C202.027 83.2504 199.204 80.5781 195.721 80.578Z" fill="#FFC431"/>
<path d="M183.11 68.6398L60.1552 68.6375C58.414 68.6375 57.0025 67.3013 57.0025 65.653C57.0025 64.0046 58.4139 62.6685 60.1551 62.6685L183.111 62.6708C184.852 62.6708 186.263 64.007 186.263 65.6554C186.263 67.3034 184.852 68.6399 183.11 68.6398Z" fill="#FFA100"/>
<path d="M179.958 80.5777L60.1555 80.5755C58.4143 80.5755 57.0028 79.2393 57.0028 77.5909C57.0028 75.9425 58.4142 74.6064 60.1554 74.6065L179.958 74.6087C181.699 74.6087 183.11 75.9449 183.111 77.5933C183.111 79.2417 181.699 80.5778 179.958 80.5777Z" fill="#FFA100"/>
<path d="M192.569 86.547L60.1557 86.5446C54.9323 86.5445 50.6976 82.5357 50.6975 77.5909C50.6974 72.6461 54.9319 68.6374 60.1553 68.6375L57.0027 68.6375C50.038 68.6373 44.3921 73.9821 44.3922 80.5753C44.3923 87.1684 50.0385 92.5134 57.0031 92.5135L192.569 92.5161C194.31 92.5161 195.722 91.1796 195.722 89.5316C195.721 87.8832 194.31 86.5471 192.569 86.547Z" fill="#FFA100"/>
<path d="M198.875 104.454L47.5449 104.452C45.8036 104.452 44.3922 103.115 44.3921 101.467C44.3921 99.8187 45.8035 98.4826 47.5448 98.4826L192.569 98.4853C196.051 98.485 198.875 101.158 198.875 104.454Z" fill="#00AAF0"/>
<path d="M212.428 113.408C212.274 113.434 212.119 113.465 211.966 113.443C210.239 113.192 208.635 114.309 208.37 115.938L205.629 132.807L175.345 132.807L176.794 116.645C176.942 115.002 175.655 113.556 173.921 113.419C172.157 113.25 170.658 114.495 170.513 116.138L169.019 132.807L126.363 132.806L126.363 116.391C126.363 114.741 124.953 113.407 123.21 113.407C121.468 113.407 120.058 114.742 120.058 116.391L120.058 132.806L77.4021 132.805L75.9076 116.137C75.7628 114.496 74.2758 113.269 72.4994 113.417C70.7662 113.554 69.4793 115 69.627 116.643L71.0762 132.805L40.7921 132.804L38.0503 115.935C37.7853 114.309 36.2089 113.178 34.4543 113.44C34.3509 113.455 34.2451 113.416 34.1401 113.405L31.2551 113.405L42.3744 181.79C43.8032 190.586 51.6667 196.972 61.0724 196.972L185.351 196.975C194.757 196.975 202.62 190.589 204.049 181.793L215.144 113.408L212.428 113.408ZM41.7623 138.773L71.6108 138.774L72.8152 152.204L43.9452 152.204L41.7623 138.773ZM44.9154 158.173L73.3505 158.174L74.5549 171.604L47.0982 171.603L44.9154 158.173ZM61.0722 191.003C54.8009 191.003 49.5606 186.748 48.606 180.88L48.0684 177.572L75.0903 177.573L75.4504 181.589C75.781 185.272 76.8001 188.465 78.2734 191.003L61.0722 191.003ZM120.059 191.004L87.1866 191.003C85.0284 191.003 82.2575 186.929 81.7309 181.082L81.4162 177.573L120.059 177.573L120.059 191.004ZM120.059 171.605L80.8809 171.604L79.6769 158.174L120.058 158.175L120.059 171.605V171.605ZM120.058 152.205L79.1415 152.205L77.9371 138.774L120.058 138.775L120.058 152.205ZM164.692 181.084C164.166 186.93 161.395 191.005 159.237 191.005L126.364 191.005L126.364 177.574L165.007 177.575L164.692 181.084ZM165.542 171.606L126.364 171.605L126.364 158.175L166.745 158.175L165.542 171.606ZM126.364 152.206L126.363 138.775L168.484 138.776L167.28 152.206L126.364 152.206ZM197.817 180.883C196.863 186.75 191.623 191.005 185.351 191.005L168.151 191.005C169.624 188.467 170.643 185.273 170.973 181.591L171.333 177.575L198.355 177.575L197.817 180.883ZM199.324 171.606L171.868 171.606L173.072 158.175L201.507 158.176L199.324 171.606ZM202.477 152.207L173.607 152.206L174.811 138.776L204.659 138.777L202.477 152.207Z" fill="#E1B48C"/>
<path d="M214.638 104.455L31.7817 104.451C28.2996 104.451 25.4764 107.123 25.4765 110.42C25.4766 113.717 28.2998 116.389 31.782 116.389L214.639 116.393C218.121 116.393 220.944 113.72 220.944 110.424C220.944 107.127 218.12 104.455 214.638 104.455Z" fill="#EBC9A0"/>
<path d="M88.5303 110.421C88.5303 107.125 91.3534 104.452 94.8356 104.453L31.7817 104.451C28.2996 104.451 25.4764 107.123 25.4765 110.42C25.4766 113.717 28.2998 116.389 31.782 116.389L94.8358 116.391C91.3537 116.39 88.5304 113.718 88.5303 110.421Z" fill="#E1B48C"/>
</svg>
